# xmcd CD database file
#
# Track frame offsets:
#	150
#	27807
#	52295
#	76750
#	95137
#	123107
#	150640
#	188355
#	212790
#	232125
#	250912
#	273067
#
# Disc length: 3921 seconds
#
# Revision: 0
# Processed by: cddbd v1.5.2PL0 Copyright (c) Steve Scherf et al.
# Submitted via: CDex 1.51
#
DISCID=990f4f0c
DTITLE=Lanny Morgan - A Suite For Yardbird
DYEAR=1998
DGENRE=Jazz
TTITLE0=Ornithology
TTITLE1=Blues For Alice
TTITLE2=Segment
TTITLE3=Ko Ko
TTITLE4=Yardbird Suite
TTITLE5=Marmaduke
TTITLE6=Steepplechase
TTITLE7=The Hymn
TTITLE8=Llact-Oveeseds-Ten
TTITLE9=Donna Lee
TTITLE10=Bird Feathers
TTITLE11=Kim
EXTD=YEAR: 1998
EXTT0=
EXTT1=
EXTT2=
EXTT3=
EXTT4=
EXTT5=
EXTT6=
EXTT7=
EXTT8=
EXTT9=
EXTT10=
EXTT11=
PLAYORDER=
